{
  "accessors": [
    {
      "bufferView": 0,
      "componentType": 5126,
      "count": 16381,
      "max": [
        146.62261962890625,
        210.2698516845703,
        54.26662063598633
      ],
      "min": [
        -158.95846557617188,
        90.7193832397461,
        -26.124916076660156
      ],
      "name": "positions",
      "type": "VEC3"
    },
    {
      "bufferView": 1,
      "componentType": 5125,
      "count": 98250,
      "name": "pos_index",
      "type": "SCALAR"
    },
    {
      "bufferView": 2,
      "componentType": 5126,
      "count": 16381,
      "name": "normals",
      "type": "VEC3"
    }
  ],
  "asset": {
    "version": "2.0"
  },
  "bufferViews": [
    {
      "buffer": 0,
      "byteLength": 196572,
      "name": "positions",
      "target": 34962
    },
    {
      "buffer": 1,
      "byteLength": 393000,
      "name": "pos_index",
      "target": 34963
    },
    {
      "buffer": 2,
      "byteLength": 196572,
      "name": "normals",
      "target": 34962
    }
  ],
  "buffers": [
    {
      "byteLength": 196572,
      "name": "positions",
      "uri": "data:application/octet-stream;base64,"
    },
    {
      "byteLength": 393000,
      "name": "pos_index",
      "uri": "data:application/octet-stream;base64,"
    },
    {
      "byteLength": 196572,
      "name": "normals",
      "uri": "data:application/octet-stream;base64,"
    }
  ],
  "extensionsUsed": [
    "KHR_materials_transmission"
  ],
  "meshes": [
    {
      "name": "clouds",
      "primitives": [
        {
          "attributes": {
            "NORMAL": 2,
            "POSITION": 0
          },
          "indices": 1,
          "mode": 4
        }
      ]
    }
  ],
  "nodes": [
    {
      "mesh": 0,
      "name": "clouds"
    }
  ],
  "scene": 0,
  "scenes": [
    {
      "nodes": [
        0
      ]
    }
  ]
}
